<svg xmlns="http://www.w3.org/2000/svg" viewBox="0 0 48 48" fill="none">
  <circle cx="24" cy="24" r="24" fill="#25D366"/>
  <path fill="#fff" d="M33.9 29.4c-.5-.3-3.1-1.5-3.6-1.7-.5-.2-.8-.3-1.2.3-.3.5-1.4 1.7-1.7 2-.3.4-.6.4-1.1.1-.5-.3-2.2-.8-4.1-2.6-1.5-1.4-2.6-3.1-2.9-3.6-.3-.5 0-.8.2-1.1.3-.2.5-.6.8-.9.3-.3.4-.5.5-.9.2-.3.1-.7 0-.9-.1-.3-1.2-2.8-1.6-3.9-.4-1-.9-.9-1.2-.9h-1c-.3 0-.9.1-1.4.7-.5.5-1.8 1.8-1.8 4.3s1.9 5 2.1 5.4c.2.3 3.7 5.6 9 7.9 1.3.5 2.2.9 3 1.1 1.3.4 2.4.3 3.3.2 1-.1 3.1-1.3 3.5-2.5.4-1.2.4-2.3.3-2.5-.2-.2-.5-.3-1-.6z"/>
</svg>
